<?xml version="1.0" encoding="utf-8"?>
<!-- Generator: Adobe Illustrator 27.1.1, SVG Export Plug-In . SVG Version: 6.00 Build 0)  -->
<svg version="1.1" id="Layer_1" xmlns="http://www.w3.org/2000/svg" xmlns:xlink="http://www.w3.org/1999/xlink" x="0px" y="0px"
	 viewBox="0 0 31.5 31.5" style="enable-background:new 0 0 31.5 31.5;" xml:space="preserve">
<style type="text/css">
	.st0{fill:#1BA5E1;}
</style>
<path class="st0" d="M13.9,6.8c-0.1,0.2-0.3,0.5-0.4,0.7c-2.4,2.5-4.8,5-7.2,7.5c-0.5,0.5-1.1,0.9-1.8,0.6c-0.9-0.3-1.3-1.2-0.8-2.1
	C3.8,13.3,4,13,4.2,12.8C7.6,9.2,11,5.7,14.4,2.1c0.9-0.9,1.7-0.9,2.6,0c3.4,3.5,6.8,7.1,10.2,10.6c0.2,0.2,0.5,0.5,0.6,0.8
	c0.4,0.6,0.3,1.3-0.2,1.8c-0.5,0.5-1.4,0.6-1.9,0.1c-0.6-0.5-1.1-1.1-1.6-1.6c-2.1-2.2-4.2-4.3-6.2-6.5c-0.1-0.1-0.3-0.3-0.5-0.5
	c0,0.4-0.1,0.6-0.1,0.9c0,6.8,0,13.6,0,20.4c0,0.3,0,0.6,0,0.8c-0.1,0.8-0.7,1.3-1.5,1.2c-0.8,0-1.3-0.5-1.4-1.3c0-0.3,0-0.5,0-0.8
	c0-6.8,0-13.5,0-20.3c0-0.3,0-0.5,0-0.8C14.1,6.9,14,6.9,13.9,6.8z"/>
</svg>
