<?xml version="1.0" encoding="utf-8"?>
<!-- Generator: Adobe Illustrator 27.1.1, SVG Export Plug-In . SVG Version: 6.00 Build 0)  -->
<svg version="1.1" id="Layer_1" xmlns="http://www.w3.org/2000/svg" xmlns:xlink="http://www.w3.org/1999/xlink" x="0px" y="0px"
	 viewBox="0 0 31.5 31.5" style="enable-background:new 0 0 31.5 31.5;" xml:space="preserve">
<style type="text/css">
	.st0{fill:#1BA5E1;}
</style>
<g>
	<path class="st0" d="M28.9,11.2c0-0.7-0.2-1.3-0.7-1.8C26,7.3,23.9,5.1,21.8,3c-0.5-0.5-1.1-0.7-1.7-0.7c-2.8,0-5.6,0-8.4,0
		c-1.7,0-3.2,1.2-3.4,2.6c-0.2,1.5-0.1,3-0.2,4.5C8.6,9.3,9,9.2,9.4,9.2c0.3,0,0.4-0.1,0.4-0.4c0-0.9,0-1.8,0-2.7
		c0-0.4,0.1-0.9,0.3-1.2c0.3-0.7,1-0.8,1.8-0.9c2,0,4.1,0,6.1,0c0.4,0,0.5,0.1,0.5,0.5c0,1.7,0,3.4,0,5c0,0.5,0.1,0.9,0.2,1.4
		c0.4,1.1,1.3,1.7,2.7,1.7c1.7,0,3.5,0,5.2,0c0.5,0,0.6,0.2,0.6,0.6c0,1.5,0,3,0,4.5c0,2.8,0,5.6,0,8.4c0,1.4-0.6,2.1-2,2.1
		c-0.2,0-0.4,0-0.5,0c-3.3,0-6.6,0-9.8,0c-0.4,0-0.7,0-1.1,0c-0.1,0-0.3,0.2-0.3,0.2c0,0.5,0,0.9,0,1.4c0.1,0,0.1,0,0.2,0
		c3.9,0,7.8,0,11.7,0c2.1,0,3.6-1.4,3.6-3.6C28.9,21.3,28.9,16.3,28.9,11.2z M27,10.9c-0.2,0-0.3,0-0.5,0c-1.7,0-3.4,0-5,0
		c-1,0-1.3-0.3-1.3-1.3c0-1.7,0-3.4,0-5.1c0-0.1,0-0.3,0-0.4c0.1,0,0.1-0.1,0.2-0.1c2.2,2.2,4.5,4.4,6.7,6.7
		C27,10.8,27,10.8,27,10.9z"/>
	<path class="st0" d="M14.2,20.6c0.8-0.5,1-1.1,0.6-2c-0.2-0.6-0.2-1.1,0-1.6c0.4-0.9,0.2-1.4-0.6-1.9c-0.5-0.3-0.7-0.7-0.7-1.3
		c-0.1-1-0.5-1.4-1.4-1.5c-0.6,0-0.9-0.2-1.3-0.7c-0.5-0.8-1-0.9-1.9-0.6c-0.5,0.2-1,0.3-1.6,0c-1-0.4-1.4-0.3-2,0.6
		c-0.3,0.4-0.6,0.6-1.1,0.6c-1,0-1.4,0.4-1.5,1.4c-0.1,0.6-0.3,1-0.8,1.3c-0.7,0.5-0.9,1-0.6,1.8c0.3,0.7,0.2,1.3,0,1.9
		c-0.3,0.7-0.1,1.2,0.5,1.6c0.6,0.4,0.8,0.8,0.9,1.5c0,0.6,0.3,1,0.8,1.2c0.2,0.1,0.4,0.1,0.6,0.1c0.4,0,0.5,0.2,0.5,0.6
		c0,0.8,0,1.6,0,2.5c0,0.9,0,1.7,0,2.6c0,0.4,0.1,0.7,0.5,1c0.4,0.2,0.7,0.1,1-0.1c0.5-0.4,1-0.7,1.6-1.1c0.3-0.2,0.5-0.2,0.8,0
		c0.5,0.4,1,0.6,1.4,1c0.3,0.2,0.7,0.5,1.1,0.2c0.4-0.2,0.5-0.6,0.5-1.1c0-1.6,0-3.2,0-4.8c0-0.5,0.1-0.7,0.6-0.7
		c1-0.1,1.4-0.5,1.4-1.5C13.5,21.2,13.8,20.9,14.2,20.6z M9.8,27.5c-0.4-0.3-0.7-0.4-1-0.7c-0.5-0.4-0.9-0.4-1.4,0
		c-0.3,0.2-0.6,0.4-1.1,0.7c0-0.9,0-1.7,0-2.5c0-0.1,0.1-0.2,0.2-0.2c0.4-0.1,0.8-0.3,1.2-0.4c0.3,0,0.6,0,0.8,0.1
		c0.4,0.1,0.9,0.2,1.1,0.4c0.2,0.3,0.1,0.8,0.1,1.2C9.8,26.5,9.8,26.9,9.8,27.5z M13,18.8c0.1,0.3,0.1,0.5-0.1,0.7
		c-0.6,0.4-0.9,1-1,1.7c0,0.3-0.1,0.4-0.4,0.5c-0.7,0-1.3,0.4-1.8,1c-0.2,0.2-0.4,0.3-0.7,0.2c-0.6-0.3-1.3-0.3-2,0
		c-0.3,0.1-0.5,0.1-0.6-0.1c-0.5-0.6-1-1-1.8-1c-0.1,0-0.3-0.2-0.4-0.4c0-0.8-0.4-1.3-1-1.8c-0.3-0.2-0.3-0.4-0.2-0.7
		c0.3-0.6,0.3-1.2,0-1.9c-0.1-0.3-0.1-0.5,0.1-0.7c0.6-0.5,1-1.1,1-1.8c0-0.1,0.2-0.3,0.3-0.3c0.8-0.1,1.3-0.4,1.8-1
		c0.2-0.2,0.4-0.3,0.7-0.2c0.6,0.3,1.3,0.3,2,0c0.3-0.1,0.5-0.1,0.6,0.2c0.5,0.6,1.1,1,1.8,1c0.1,0,0.3,0.2,0.3,0.3
		c0.1,0.8,0.4,1.4,1.1,1.9c0.1,0.1,0.1,0.2,0.2,0.3c-0.1,0.2-0.1,0.3-0.2,0.4C12.8,17.6,12.8,18.2,13,18.8z"/>
</g>
</svg>
