<?xml version="1.0" encoding="utf-8"?>
<!-- Generator: Adobe Illustrator 27.1.1, SVG Export Plug-In . SVG Version: 6.00 Build 0)  -->
<svg version="1.1" id="Layer_1" xmlns="http://www.w3.org/2000/svg" xmlns:xlink="http://www.w3.org/1999/xlink" x="0px" y="0px"
	 viewBox="0 0 31.5 31.5" style="enable-background:new 0 0 31.5 31.5;" xml:space="preserve">
<style type="text/css">
	.st0{fill:#FFFFFF;}
</style>
<g>
	<path class="st0" d="M15.8,18.7c-0.5,0.5-0.6,0.5-0.8,0.8c-3.3,3.3-6.6,6.6-9.9,9.9c-0.5,0.5-1.2,0.9-1.9,1
		c-0.8,0.2-1.5-0.3-1.9-1.1c-0.4-0.7-0.4-1.5,0-2.2c0.2-0.3,0.5-0.7,0.8-1c3.2-3.3,6.5-6.5,9.7-9.8c0.2-0.2,0.5-0.5,0.8-0.8
		c-1.2-1.1-2.3-2.2-3.4-3.3C6.8,9.8,4.3,7.4,1.9,4.9C0.6,3.7,0.7,2.1,2,1.3c0.7-0.5,1.6-0.5,2.4,0.1C5.3,2.1,6.2,3,7,3.9
		c2.7,2.7,5.4,5.4,8.1,8.1c0.2,0.2,0.2,0.2,0.6,0.6c0.5-0.5,0.5-0.5,0.7-0.7c3.3-3.3,6.6-6.6,9.9-9.9c1.1-1.1,2.1-1.3,3.1-0.6
		c1,0.7,1.3,1.9,0.6,2.9c-0.2,0.4-0.5,0.7-0.9,1c-3.2,3.2-6.5,6.5-9.7,9.7c-0.2,0.2-0.2,0.2-0.7,0.7c0.5,0.5,0.6,0.7,1,1
		c3.2,3.2,6.5,6.5,9.7,9.7c1.1,1.1,1.3,2.1,0.6,3.2c-0.7,0.9-1.9,1.2-2.8,0.6c-0.4-0.2-0.7-0.5-1-0.8c-3.3-3.3-6.5-6.5-9.8-9.8
		C16.2,19.2,16.1,19.1,15.8,18.7z"/>
</g>
</svg>
