<?xml version="1.0" encoding="utf-8"?>
<!-- Generator: Adobe Illustrator 27.1.1, SVG Export Plug-In . SVG Version: 6.00 Build 0)  -->
<svg version="1.1" id="Layer_1" xmlns="http://www.w3.org/2000/svg" xmlns:xlink="http://www.w3.org/1999/xlink" x="0px" y="0px"
	 viewBox="0 0 31.5 31.5" style="enable-background:new 0 0 31.5 31.5;" xml:space="preserve">
<style type="text/css">
	.st0{fill:#FFFFFF;}
</style>
<g>
	<g>
		<path class="st0" d="M27.4,5.4c0-0.8-0.2-1.5-0.7-2.1c-0.8-1-1.9-1.4-3.1-1.4c-5.3,0-6.8,0-12.1,0c-1.2,0-2.9,0-4.1,0
			c-2.2,0-3.6,1.4-3.6,3.7c0,5.4,0,14.6,0,20c0,2.3,1.4,3.7,3.7,3.7c3.2,0,6.3,0,9.5,0c3.3,0,3.4,0,6.7,0c2.2,0,3.6-1.4,3.7-3.6
			c0-0.7,0-1.4,0-2.2C27.4,18.8,27.4,10.2,27.4,5.4z M25.8,25.4c0,0.1,0,0.3,0,0.4c0,1.3-0.7,1.9-1.9,1.9c-3.3,0-3.5,0-6.8,0
			c-3.2,0-6.3,0-9.5,0c-0.3,0-0.6,0-0.9-0.1c-0.5-0.1-0.9-0.5-1-1c-0.1-0.3-0.1-0.7-0.1-1c0-5.3,0-14.4,0-19.7c0-0.2,0-0.4,0-0.6
			c0-1.3,0.5-1.7,1.7-1.7c0.8,0,2.1,0,3,0c5.7,0,7.7,0,13.4,0c0.4,0,0.8,0,1.2,0.2c0.8,0.3,0.9,1,0.9,1.7c0,1.1,0,3.2,0,4.3
			C25.8,14,25.8,21.2,25.8,25.4z"/>
	</g>
	<path class="st0" d="M13.9,11.9c-0.2-0.3-0.4-0.6-0.7-0.7c-0.3-0.2-0.7,0-0.9,0.2c-1.1,1.2-2.2,2.5-3.3,3.7c-0.3,0.4-0.3,0.8,0,1.2
		c1.1,1.2,2.2,2.5,3.3,3.7c0.4,0.4,0.7,0.4,1.1,0.2c0.5-0.3,0.5-0.8,0-1.4c-0.8-0.9-1.6-1.8-2.4-2.7c-0.3-0.3-0.3-0.5,0-0.8
		c0.8-0.8,1.6-1.7,2.4-2.6C13.5,12.4,13.7,12.2,13.9,11.9z M18.1,20.3c0.1-0.1,0.4-0.2,0.6-0.4c1-1.1,2.1-2.3,3.1-3.5
		c0.4-0.5,0.4-0.9,0-1.4c-0.5-0.6-1-1.2-1.5-1.7c-0.5-0.6-1.1-1.2-1.6-1.8c-0.4-0.5-0.9-0.5-1.3-0.1c-0.3,0.4-0.3,0.8,0.1,1.2
		c0.8,0.9,1.6,1.8,2.5,2.7c0.2,0.2,0.2,0.4,0,0.7c-0.8,0.9-1.6,1.8-2.4,2.6c-0.1,0.2-0.3,0.3-0.4,0.6C17,19.7,17.4,20.3,18.1,20.3z"
		/>
</g>
</svg>
