<?xml version="1.0" encoding="utf-8"?>
<!-- Generator: Adobe Illustrator 27.1.1, SVG Export Plug-In . SVG Version: 6.00 Build 0)  -->
<svg version="1.1" id="Layer_1" xmlns="http://www.w3.org/2000/svg" xmlns:xlink="http://www.w3.org/1999/xlink" x="0px" y="0px"
	 viewBox="0 0 31.5 31.5" style="enable-background:new 0 0 31.5 31.5;" xml:space="preserve">
<style type="text/css">
	.st0{fill:#FFFFFF;}
</style>
<g>
	<path class="st0" d="M29.9,9.6c0-2.1-1.3-3.5-3.5-3.5c-7.1,0-14.3,0-21.4,0c-2.2,0-3.5,1.3-3.5,3.4c0,4.5,0,9,0,13.5
		c0,1.9,1.4,3.6,3.5,3.5c2.1-0.1,4.3,0,6.4,0c0.6,0,0.6,0,0.5,0.6c-0.1,0.7-0.3,1.4-0.4,2.1c0,0.4-0.2,0.5-0.6,0.5
		c-0.8,0-1.5,0-2.3,0c-0.5,0-0.8,0.3-0.8,0.8c0,0.4,0.3,0.7,0.8,0.8c0.1,0,0.2,0,0.3,0c4.5,0,9,0,13.5,0c0.1,0,0.3,0,0.4,0
		c0.2-0.2,0.5-0.3,0.6-0.6c0.1-0.2,0-0.5-0.2-0.7c-0.2-0.2-0.5-0.2-0.7-0.3c-0.7,0-1.5,0-2.3,0c-0.2,0-0.4-0.1-0.4-0.2
		c-0.2-0.9-0.4-1.9-0.5-2.9c0.3,0,0.4,0,0.6,0c2.2,0,4.4,0,6.5,0c0.3,0,0.6,0,0.9-0.1c1.6-0.5,2.4-1.6,2.4-3.3
		C29.9,18.7,29.9,14.1,29.9,9.6z M17.9,29.8c-0.8,0-1.7,0-2.5,0c-0.6,0-1.2,0-1.8,0c-0.2,0-0.3,0-0.6-0.1c0.2-1,0.3-2,0.5-2.9
		c0-0.1,0.2-0.2,0.3-0.2c1.2,0,2.4,0,3.6,0c0.1,0,0.3,0.2,0.3,0.3c0.2,0.9,0.3,1.7,0.4,2.6C18.3,29.8,18.1,29.8,17.9,29.8z
		 M28.3,23.2c0,1.3-0.6,1.9-1.9,1.9c-3.6,0-7.2,0-10.8,0c-3.6,0-7.1,0-10.7,0c-1.3,0-1.9-0.7-1.9-1.9c0-4.5,0-9,0-13.5
		c0-1.3,0.6-2,1.9-2c7.1,0,14.3,0,21.4,0c1.3,0,1.9,0.6,1.9,1.9C28.3,14.2,28.3,18.7,28.3,23.2z"/>
	<path class="st0" d="M13.8,13.8c0.4-0.4,0.4-0.7,0-1.1c-0.3-0.3-0.7-0.3-1,0.1c-1,1-2,2-3.1,3.1c-0.4,0.4-0.4,0.7,0,1.2
		c0.8,0.8,1.6,1.6,2.4,2.4c0.2,0.2,0.4,0.5,0.7,0.7c0.4,0.3,0.7,0.3,1.1,0c0.3-0.3,0.3-0.6,0-1c-0.1-0.1-0.3-0.3-0.4-0.4
		c-0.7-0.7-1.4-1.5-2.1-2.2c0.2-0.2,0.3-0.3,0.4-0.5C12.4,15.2,13.1,14.5,13.8,13.8z"/>
	<path class="st0" d="M18.4,12.6c-0.2-0.2-0.5-0.2-0.8,0c-0.4,0.3-0.5,0.7-0.1,1.2c0.8,0.9,1.7,1.7,2.5,2.6
		c-0.2,0.2-0.3,0.3-0.4,0.5c-0.7,0.7-1.4,1.4-2.1,2.2c-0.4,0.4-0.3,0.7,0,1c0.3,0.3,0.7,0.3,1,0c1.1-1,2.1-2.1,3.2-3.2
		c0.3-0.3,0.3-0.6,0.1-0.9C20.7,14.8,19.6,13.7,18.4,12.6z"/>
</g>
</svg>
