<?xml version="1.0" encoding="utf-8"?>
<!-- Generator: Adobe Illustrator 27.1.1, SVG Export Plug-In . SVG Version: 6.00 Build 0)  -->
<svg version="1.1" id="Layer_1" xmlns="http://www.w3.org/2000/svg" xmlns:xlink="http://www.w3.org/1999/xlink" x="0px" y="0px"
	 viewBox="0 0 31.5 31.5" style="enable-background:new 0 0 31.5 31.5;" xml:space="preserve">
<style type="text/css">
	.st0{fill:#FFFFFF;}
</style>
<g>
	<path class="st0" d="M29.5,11.6c0-1.5-0.9-2.8-2.3-3.2c-0.9-0.2-1.8-0.2-2.7-0.3c-6.2,0-12.3,0-18.5,0c-2.5,0.1-3.9,1.5-3.9,4
		c0,4.3,0,8.6,0,12.9c0,2.3,1.5,3.8,3.8,3.8c3.3,0,6.6,0,9.9,0c3.4,0,6.7,0,10.1,0c2.1,0,3.6-1.5,3.6-3.5
		C29.5,20.7,29.5,16.2,29.5,11.6z M27.8,25c0,1.4-0.7,2.1-2.1,2.1c-6.6,0-13.3,0-19.9,0c-1.3,0-2.1-0.7-2.1-2c0-2.9,0-5.8,0-8.7
		c0-0.1,0-0.3,0.1-0.5c1,0.8,2,1.5,3,2.2c2.1,1.5,4.2,3.1,6.3,4.6c1.8,1.3,3.6,1.3,5.4,0c2.9-2.1,5.8-4.3,8.8-6.4
		c0.1-0.1,0.3-0.2,0.5-0.3c0,0.2,0,0.4,0,0.6C27.8,19.3,27.8,22.1,27.8,25z M26.4,14.8c-3,2.1-5.9,4.3-8.9,6.5
		c-1.2,0.8-2.3,0.8-3.5,0c-3.3-2.4-6.6-4.8-9.8-7.2c-0.3-0.2-0.5-0.5-0.5-0.9c0-0.6,0-1.2,0.1-1.9c0.1-0.8,0.7-1.3,1.5-1.4
		c0.2,0,0.5,0,0.7,0c3.3,0,6.5,0,9.8,0s6.7,0,10,0c0.7,0,1.4,0.2,1.8,0.9c0.2,0.4,0.2,0.8,0.2,1.2C28.1,13.3,27.5,14.1,26.4,14.8z"
		/>
</g>
</svg>
