<?xml version="1.0" encoding="utf-8"?>
<!-- Generator: Adobe Illustrator 27.1.1, SVG Export Plug-In . SVG Version: 6.00 Build 0)  -->
<svg version="1.1" id="Layer_1" xmlns="http://www.w3.org/2000/svg" xmlns:xlink="http://www.w3.org/1999/xlink" x="0px" y="0px"
	 viewBox="0 0 31.5 31.5" style="enable-background:new 0 0 31.5 31.5;" xml:space="preserve">
<style type="text/css">
	.st0{fill:#FFFFFF;}
</style>
<g>
	<path class="st0" d="M26,13.4c0-0.3,0-0.5,0-0.8c0-0.8-0.4-1.4-0.9-1.9c-2-2-3.9-3.9-5.9-5.9c-0.6-0.6-1.3-0.9-2.2-0.9
		c-2.6,0-5.2,0-7.8,0C7,3.9,5.5,5.4,5.5,7.6c0,3.3,0,6.6,0,9.9c0,3.4,0,6.8,0,10.1c0,2,1.4,3.5,3.4,3.6c4.6,0,9.1,0,13.7,0
		c1.5,0,2.8-0.9,3.2-2.4c0.2-0.5,0.2-1.1,0.2-1.6C26,22.7,26,18,26,13.4z M17.4,6.1c0-0.1,0-0.2,0.1-0.4c2.3,2.2,4.5,4.4,6.7,6.6
		c0,0,0,0.1-0.1,0.1s-0.3,0-0.4,0c-1.7,0-3.4,0-5.1,0c-0.9,0-1.2-0.3-1.2-1.2C17.4,9.5,17.4,7.8,17.4,6.1z M24.3,27.4
		c0,0.4,0,0.9-0.2,1.2c-0.3,0.8-1.1,1-1.9,1c-4.3,0-8.6,0-13,0H9.1c-1.3,0-2-0.7-2-2c0-6.7,0-13.3,0-20c0-1.3,0.6-2,2-2
		c2.1,0,4.1,0,6.2,0c0.4,0,0.5,0.2,0.5,0.5c0,1.7,0,3.5,0,5.2c0,1.8,1.1,2.8,2.8,2.8s3.4,0,5.1,0c0.2,0,0.4,0,0.6,0
		c0,0.2,0,0.4,0,0.5C24.3,18.9,24.3,23.2,24.3,27.4z"/>
	<path class="st0" d="M11.5,10.8c-0.5,0-1.1,0-1.6,0c-0.6,0-0.9,0.3-0.9,0.8s0.3,0.9,0.9,0.9c1.1,0,2.2,0,3.4,0
		c0.5,0,0.9-0.4,0.8-0.9c0-0.5-0.3-0.8-0.9-0.8C12.5,10.8,12,10.8,11.5,10.8z"/>
	<path class="st0" d="M9.9,9c0.5,0,1.1,0,1.6,0l0,0c0.6,0,1.1,0,1.7,0c0.6,0,0.9-0.4,0.9-0.9s-0.3-0.8-0.8-0.8c-1.1,0-2.2,0-3.4,0
		C9.5,7.4,9.2,7.6,9,7.8C8.7,8.4,9.1,9,9.9,9z"/>
	<path class="st0" d="M21.8,26.2c-1.1,0-2.3,0-3.4,0c-0.5,0-0.8,0.3-0.8,0.8s0.3,0.8,0.8,0.8c0.6,0,1.1,0,1.7,0s1.1,0,1.7,0
		c0.5,0,0.8-0.3,0.8-0.8C22.6,26.6,22.2,26.2,21.8,26.2z"/>
	<path class="st0" d="M21.1,16.8c-0.4-0.1-0.9-0.1-1.3-0.1c-3,0-5.9,0-8.9,0c-1.3,0-1.9,0.5-2,1.6c-0.1,1.3,0,2.6,0.1,3.9
		c0,0.6,0.5,1,1,1.2c0.3,0.1,0.6,0.1,1,0.1c1.6,0,3.2,0,4.7,0c1.6,0,3.3,0,4.9,0c1.2,0,1.9-0.5,1.9-1.6c0.1-1.2,0.1-2.4,0-3.6
		C22.5,17.4,22.1,17,21.1,16.8z M20.4,21.9c-1.5,0-3.1,0-4.6,0s-3.1,0-4.6,0c-0.4,0-0.6-0.1-0.6-0.6c0-0.8,0-1.6,0-2.4
		c0-0.4,0.1-0.5,0.5-0.5c3.1,0,6.3,0,9.4,0c0.3,0,0.5,0.1,0.5,0.5c0,0.8,0,1.7,0,2.5C20.9,21.8,20.8,21.9,20.4,21.9z"/>
</g>
</svg>
