<?xml version="1.0" encoding="utf-8"?>
<!-- Generator: Adobe Illustrator 27.1.1, SVG Export Plug-In . SVG Version: 6.00 Build 0)  -->
<svg version="1.1" id="Layer_1" xmlns="http://www.w3.org/2000/svg" xmlns:xlink="http://www.w3.org/1999/xlink" x="0px" y="0px"
	 viewBox="0 0 31.5 31.5" style="enable-background:new 0 0 31.5 31.5;" xml:space="preserve">
<style type="text/css">
	.st0{fill:#FFFFFF;}
</style>
<g>
	<path class="st0" d="M30.8,14.9c-0.1-0.1-0.2-0.2-0.4-0.3c-4.6-4-9.2-8.1-13.8-12.1c-0.7-0.6-1-0.6-1.7,0
		c-3.7,3.3-7.4,6.5-11.1,9.8c-1,0.9-2.1,1.8-3.1,2.7c-0.3,0.2-0.5,0.5-0.3,0.9c0.1,0.3,0.4,0.6,0.6,0.6c0.3,0,0.7-0.1,0.9-0.3
		c0.6-0.5,1.2-1,1.8-1.6c0,0.3,0,0.5,0,0.7c0,3.2,0,6.4,0,9.6c0,2.8,1.7,4.5,4.4,4.5c5,0,10.1,0,15.1,0c1,0,1.9-0.2,2.7-0.8
		c1.2-0.9,1.7-2.2,1.7-3.7c0-3.2,0-6.5,0-9.7c0-0.2,0-0.3,0-0.6c0.2,0.1,0.2,0.2,0.3,0.2c0.5,0.5,1,0.9,1.6,1.4c0.5,0.4,1,0.5,1.3,0
		C31.3,15.8,31.3,15.3,30.8,14.9z M18.4,27.6c-1.7,0-3.4,0-5.1,0c0-2.8,0-5.7,0-8.5c1.7,0,3.4,0,5.1,0
		C18.4,21.9,18.4,24.7,18.4,27.6z M26.1,24.7c0,1.8-1.1,2.9-2.8,2.9c-1,0-2.1,0-3.2,0c0-0.3,0-0.4,0-0.6c0-2.5,0-5.1,0-7.6
		c0-1-0.4-1.7-1.1-1.9c-0.3-0.1-0.6-0.1-0.9-0.1c-1.5,0-3,0-4.6,0c-1.4,0-2,0.6-2,2c0,2.5,0,5.1,0,7.6c0,0.2,0,0.4,0,0.7
		c-0.5,0-1,0-1.4,0c-0.7,0-1.5,0-2.2-0.1c-1.4-0.1-2.3-1.2-2.3-2.6c0-3.9,0-7.8,0-11.7c0-0.1,0.1-0.3,0.2-0.4c3.3-3,6.7-6,10.1-9
		c0.3,0.3,0.6,0.5,0.9,0.8c3,2.7,6.1,5.4,9.1,8.1c0.2,0.2,0.3,0.5,0.3,0.7C26.1,17.2,26.1,21,26.1,24.7z"/>
</g>
</svg>
