<?xml version="1.0" encoding="utf-8"?>
<!-- Generator: Adobe Illustrator 27.1.1, SVG Export Plug-In . SVG Version: 6.00 Build 0)  -->
<svg version="1.1" id="Layer_1" xmlns="http://www.w3.org/2000/svg" xmlns:xlink="http://www.w3.org/1999/xlink" x="0px" y="0px"
	 viewBox="0 0 31.5 31.5" style="enable-background:new 0 0 31.5 31.5;" xml:space="preserve">
<style type="text/css">
	.st0{fill:#FFFFFF;}
</style>
<g>
	<path class="st0" d="M29.4,11.1c0-2-1.5-3.5-3.5-3.5c-0.9,0-1.8,0-2.7,0c-0.5,0-0.6-0.2-0.6-0.6c0-0.7,0-1.4-0.1-2.1
		c-0.1-1.6-1.3-2.4-2.6-2.4c-2.8,0-5.6,0-8.4,0C10,2.5,9,3.5,8.9,5c-0.1,0.7,0,1.4,0,2.2c0,0.3-0.1,0.5-0.5,0.5c-0.9,0-1.8,0-2.7,0
		c-2.3,0-3.7,1.4-3.7,3.7c0,4.3,0,8.7,0,13c0,2.3,1.5,3.8,3.8,3.8c3.3,0,6.6,0,9.9,0c3.3,0,6.7,0,10,0c2.1,0,3.7-1.4,3.7-3.5
		C29.5,20.2,29.5,15.6,29.4,11.1z M10.6,7.1c0-0.6,0-1.3,0-1.9c0-0.7,0.3-1,1-1c2.8,0,5.5,0,8.3,0c0.7,0,1,0.3,1,1c0,0.7,0,1.3,0,2
		c0,0.4-0.1,0.5-0.5,0.5c-1.5,0-3.1,0-4.6,0c-1.5,0-3.1,0-4.6,0C10.7,7.7,10.6,7.5,10.6,7.1z M27.8,24.5c0,1.3-0.7,2-2,2
		c-3.3,0-6.7,0-10,0c-3.3,0-6.6,0-9.9,0c-0.4,0-0.9-0.1-1.3-0.3c-0.6-0.3-0.8-0.9-0.8-1.6c0-2.1,0-4.1,0-6.2c0-0.4,0.2-0.5,0.5-0.5
		c2.3,0,4.5,0,6.8,0c0.4,0,0.5,0.1,0.5,0.5c0,0.8,0,1.6,0.1,2.4c0,0.7,0.5,1,1.1,1.3c0.2,0.1,0.5,0.1,0.8,0.1c1.6,0,3.1,0,4.7,0
		c0.4,0,0.9-0.2,1.3-0.4c0.3-0.2,0.5-0.6,0.5-1c0.1-0.8,0.1-1.5,0-2.3c0-0.4,0.1-0.6,0.5-0.5c2.3,0,4.5,0,6.8,0
		c0.4,0,0.5,0.1,0.5,0.5C27.8,20.4,27.8,22.5,27.8,24.5z M18.3,20.1c0,0.3-0.1,0.4-0.4,0.4c-1.5,0-2.9,0-4.4,0
		c-0.3,0-0.4-0.1-0.4-0.4c0-0.6,0-1.2,0-1.9c0-0.3,0.1-0.4,0.4-0.4c0.7,0,1.5,0,2.2,0c0.7,0,1.4,0,2.1,0c0.4,0,0.5,0.1,0.5,0.5
		C18.3,18.9,18.3,19.5,18.3,20.1z M27.8,15.7c0,0.4-0.2,0.5-0.5,0.5c-3.8,0-7.7,0-11.5,0c-3.8,0-7.6,0-11.4,0c-0.6,0-0.6,0-0.6-0.7
		c0-1.4,0-2.8,0-4.2c0-1.4,0.6-2,2-2c6.7,0,13.4,0,20.1,0c1.3,0,2,0.6,2,1.9C27.8,12.7,27.8,14.2,27.8,15.7z"/>
</g>
<g>
	<path class="st0" d="M191.5,5.4c0-1.5-0.9-2.8-2.3-3.2c-0.9-0.2-1.8-0.2-2.7-0.3c-6.2,0-12.3,0-18.5,0c-2.5,0-3.9,1.4-3.9,3.9
		c0,4.3,0,8.6,0,12.9c0,2.3,1.5,3.8,3.8,3.8c3.3,0,6.6,0,9.9,0c3.4,0,6.7,0,10.1,0c2.1,0,3.6-1.5,3.6-3.5
		C191.5,14.5,191.5,9.9,191.5,5.4z M189.9,18.7c0,1.4-0.7,2.1-2.1,2.1c-6.6,0-13.3,0-19.9,0c-1.3,0-2.1-0.7-2.1-2c0-2.9,0-5.8,0-8.7
		c0-0.1,0-0.3,0.1-0.5c1,0.8,2,1.5,3,2.2c2.1,1.5,4.2,3.1,6.3,4.6c1.8,1.3,3.6,1.3,5.4,0c2.9-2.1,5.8-4.3,8.8-6.4
		c0.1-0.1,0.3-0.2,0.5-0.3c0,0.2,0,0.4,0,0.6C189.9,13,189.9,15.9,189.9,18.7z M188.4,8.6c-3,2.1-5.9,4.3-8.9,6.5
		c-1.2,0.8-2.3,0.8-3.5,0c-3.3-2.4-6.6-4.8-9.8-7.2c-0.3-0.2-0.5-0.5-0.5-0.9c0-0.6,0-1.2,0.1-1.9c0.1-0.8,0.7-1.3,1.5-1.4
		c0.2,0,0.5,0,0.7,0c3.3,0,6.5,0,9.8,0c3.3,0,6.7,0,10,0c0.7,0,1.4,0.2,1.8,0.9c0.2,0.4,0.2,0.8,0.2,1.2
		C190.1,7,189.5,7.8,188.4,8.6z"/>
</g>
</svg>
