<?xml version="1.0" encoding="utf-8"?>
<!-- Generator: Adobe Illustrator 27.1.1, SVG Export Plug-In . SVG Version: 6.00 Build 0)  -->
<svg version="1.1" id="Layer_1" xmlns="http://www.w3.org/2000/svg" xmlns:xlink="http://www.w3.org/1999/xlink" x="0px" y="0px"
	 viewBox="0 0 31.5 31.5" style="enable-background:new 0 0 31.5 31.5;" xml:space="preserve">
<style type="text/css">
	.st0{fill:#1BA5E1;}
</style>
<g>
	<path class="st0" d="M30.5,6.1c0-0.5-0.1-1.1-0.3-1.5c-0.6-1.4-1.8-1.9-3.2-2c-3.8,0-7.6,0-11.4,0c-3.8,0-7.6,0-11.3,0
		C2.1,2.7,0.7,4,0.7,6.3c0,3.1,0,6.1,0,9.2c0,1.8,0,3.5,0,5.3c0,2,1.6,3.5,3.5,3.4c1.1,0,2.3,0,3.4,0c1.2,0,2.5,0,3.7,0
		c0.3,0,0.5,0,0.4,0.4c-0.2,0.8-0.3,1.6-0.4,2.4c-0.1,0.4-0.2,0.5-0.6,0.5c-0.8,0-1.6,0-2.4,0c-0.4,0-0.7,0.1-0.8,0.5
		c-0.1,0.2,0,0.6,0.1,0.8c0.2,0.2,0.5,0.3,0.8,0.3c1.2,0,2.4,0,3.6,0c3.6,0,7.2,0,10.8,0c0.3,0,0.7-0.1,0.9-0.3
		c0.2-0.1,0.2-0.5,0.2-0.8c-0.1-0.4-0.4-0.6-0.8-0.6c-0.8,0-1.6,0-2.5,0c-0.3,0-0.5-0.1-0.5-0.5c-0.1-0.8-0.2-1.5-0.4-2.3
		c-0.1-0.6-0.1-0.6,0.5-0.6c2.3,0,4.6,0,7,0c2,0,3.5-1.5,3.5-3.5C30.6,15.9,30.6,11,30.5,6.1z M17.9,27.6c-0.8,0-1.5,0-2.3,0
		c-0.8,0-1.5,0-2.3,0c-0.4,0-0.5-0.1-0.4-0.5c0.2-0.8,0.3-1.6,0.4-2.5c0-0.3,0.2-0.4,0.5-0.4c1.2,0,2.5,0,3.7,0
		c0.1,0,0.3,0.2,0.4,0.3c0.2,0.9,0.3,1.8,0.5,2.7C18.4,27.6,18.2,27.6,17.9,27.6z M28.9,20.7c0,1.3-0.6,1.9-1.9,1.9
		c-3.8,0-7.6,0-11.4,0c-3.8,0-7.6,0-11.4,0c-0.7,0-1.3-0.2-1.6-0.8c-0.2-0.3-0.3-0.8-0.3-1.1c0-4.8,0-9.6,0-14.4c0-1.3,0.7-2,2-2
		c7.5,0,15.1,0,22.6,0c1.3,0,2,0.6,2,2C28.9,11.1,28.9,15.9,28.9,20.7z"/>
	<path class="st0" d="M18.6,9.5c-0.3-0.3-0.6-0.2-0.9,0c-0.4,0.4-0.4,0.7,0,1.2c0.9,0.9,1.7,1.8,2.6,2.7c-0.2,0.2-0.3,0.4-0.5,0.5
		c-0.7,0.7-1.5,1.5-2.2,2.2c-0.4,0.4-0.4,0.8,0,1.1c0.4,0.3,0.7,0.4,1.1,0c1.1-1.1,2.2-2.2,3.3-3.3c0.3-0.3,0.4-0.7,0-1
		C20.9,11.8,19.7,10.6,18.6,9.5z"/>
	<path class="st0" d="M13.7,9.6c-0.4-0.4-0.7-0.4-1.1,0.1c-1.1,1-2.1,2.1-3.1,3.1c-0.5,0.5-0.5,0.8,0,1.3c0.8,0.8,1.5,1.5,2.3,2.3
		c0.3,0.3,0.6,0.6,0.8,0.8c0.4,0.4,0.8,0.4,1.1,0c0.3-0.3,0.3-0.7,0-1.1c-0.1-0.2-0.3-0.3-0.4-0.4c-0.7-0.8-1.5-1.5-2.3-2.3
		c0.9-0.9,1.8-1.8,2.6-2.7C14,10.3,14,9.9,13.7,9.6z"/>
</g>
</svg>
