<?xml version="1.0" encoding="utf-8"?>
<!-- Generator: Adobe Illustrator 27.1.1, SVG Export Plug-In . SVG Version: 6.00 Build 0)  -->
<svg version="1.1" id="Layer_1" xmlns="http://www.w3.org/2000/svg" xmlns:xlink="http://www.w3.org/1999/xlink" x="0px" y="0px"
	 viewBox="0 0 31.5 31.5" style="enable-background:new 0 0 31.5 31.5;" xml:space="preserve">
<style type="text/css">
	.st0{fill:#FFFFFF;}
</style>
<g>
	<path class="st0" d="M15.7,15.4c3.9,0,6.8-3.1,6.8-6.8c0-3.7-3.1-6.8-6.8-6.9c-3.7,0-6.8,3.1-6.9,6.8C8.9,12.2,12,15.4,15.7,15.4z
		 M15.8,3.4c2.9,0,5.1,2.3,5.1,5.2c0.1,2.5-1.9,5.1-5.2,5.1c-2.8,0-5.2-2.4-5.1-5.2C10.6,5.7,13,3.4,15.8,3.4z"/>
	<path class="st0" d="M27.7,27.2c-0.2-2-0.7-3.9-2-5.6c-1.4-1.8-3.3-3-5.6-3.4c-2.3-0.4-4.7-0.2-7-0.2c-0.7,0-1.5,0.1-2.2,0.3
		c-4.2,1-7.1,4.7-7.2,9c0,1.1,0.7,1.8,1.7,1.8c3.4,0,6.8,0,10.2,0c3.4,0,6.8,0,10.2,0C27.1,29.1,27.8,28.1,27.7,27.2z M25.7,27.4
		c-0.2,0-0.3,0-0.5,0c-6.4,0-12.8,0-19.1,0c-0.2,0-0.4,0-0.6,0c0-1.4,0.4-2.7,1.1-3.9c1.5-2.4,3.8-3.7,6.7-3.8c2,0,4,0,6.1,0.1
		c2.9,0.2,5.8,2.8,6.5,5.6c0.1,0.5,0.2,1.1,0.3,1.6C26.1,27.3,26,27.4,25.7,27.4z"/>
</g>
</svg>
